<svg id="visual" viewBox="0 0 960 540" width="960" height="540" xmlns="http://www.w3.org/2000/svg" xmlns:xlink="http://www.w3.org/1999/xlink" version="1.1"><path d="M940 540L901 270L959 0L960 0L960 270L960 540Z" fill="#991eb7"></path><path d="M911 540L834 270L882 0L960 0L902 270L941 540Z" fill="#911bb5"></path><path d="M873 540L825 270L796 0L883 0L835 270L912 540Z" fill="#8919b3"></path><path d="M786 540L594 270L585 0L797 0L826 270L874 540Z" fill="#8016b0"></path><path d="M623 540L556 270L450 0L586 0L595 270L787 540Z" fill="#7714ae"></path><path d="M623 540L498 270L345 0L451 0L557 270L624 540Z" fill="#6f12ac"></path><path d="M604 540L373 270L210 0L346 0L499 270L624 540Z" fill="#6610a9"></path><path d="M556 540L297 270L191 0L211 0L374 270L605 540Z" fill="#5c0ea7"></path><path d="M431 540L172 270L124 0L192 0L298 270L557 540Z" fill="#520da5"></path><path d="M0 540L0 270L0 0L125 0L173 270L432 540Z" fill="#480ca2"></path></svg>