<svg id="visual" viewBox="0 0 960 540" width="960" height="540" xmlns="http://www.w3.org/2000/svg" xmlns:xlink="http://www.w3.org/1999/xlink" version="1.1"><path d="M0 163L32 160.3C64 157.7 128 152.3 192 147.8C256 143.3 320 139.7 384 132.5C448 125.3 512 114.7 576 119.2C640 123.7 704 143.3 768 147.8C832 152.3 896 141.7 928 136.3L960 131L960 0L928 0C896 0 832 0 768 0C704 0 640 0 576 0C512 0 448 0 384 0C320 0 256 0 192 0C128 0 64 0 32 0L0 0Z" fill="#e3c4ff"></path><path d="M0 260L32 255.5C64 251 128 242 192 239.3C256 236.7 320 240.3 384 242.2C448 244 512 244 576 243.2C640 242.3 704 240.7 768 234.3C832 228 896 217 928 211.5L960 206L960 129L928 134.3C896 139.7 832 150.3 768 145.8C704 141.3 640 121.7 576 117.2C512 112.7 448 123.3 384 130.5C320 137.7 256 141.3 192 145.8C128 150.3 64 155.7 32 158.3L0 161Z" fill="#c291ed"></path><path d="M0 336L32 332.3C64 328.7 128 321.3 192 322.2C256 323 320 332 384 333C448 334 512 327 576 317.2C640 307.3 704 294.7 768 291.8C832 289 896 296 928 299.5L960 303L960 204L928 209.5C896 215 832 226 768 232.3C704 238.7 640 240.3 576 241.2C512 242 448 242 384 240.2C320 238.3 256 234.7 192 237.3C128 240 64 249 32 253.5L0 258Z" fill="#a05eda"></path><path d="M0 406L32 397.8C64 389.7 128 373.3 192 368.8C256 364.3 320 371.7 384 373.5C448 375.3 512 371.7 576 366.3C640 361 704 354 768 350.5C832 347 896 347 928 347L960 347L960 301L928 297.5C896 294 832 287 768 289.8C704 292.7 640 305.3 576 315.2C512 325 448 332 384 331C320 330 256 321 192 320.2C128 319.3 64 326.7 32 330.3L0 334Z" fill="#7d22c6"></path><path d="M0 428L32 424.3C64 420.7 128 413.3 192 408.8C256 404.3 320 402.7 384 402.7C448 402.7 512 404.3 576 399.8C640 395.3 704 384.7 768 382.8C832 381 896 388 928 391.5L960 395L960 345L928 345C896 345 832 345 768 348.5C704 352 640 359 576 364.3C512 369.7 448 373.3 384 371.5C320 369.7 256 362.3 192 366.8C128 371.3 64 387.7 32 395.8L0 404Z" fill="#750ec2"></path><path d="M0 444L32 442.2C64 440.3 128 436.7 192 434.8C256 433 320 433 384 432.2C448 431.3 512 429.7 576 426C640 422.3 704 416.7 768 415.7C832 414.7 896 418.3 928 420.2L960 422L960 393L928 389.5C896 386 832 379 768 380.8C704 382.7 640 393.3 576 397.8C512 402.3 448 400.7 384 400.7C320 400.7 256 402.3 192 406.8C128 411.3 64 418.7 32 422.3L0 426Z" fill="#7d22c6"></path><path d="M0 476L32 476C64 476 128 476 192 474.2C256 472.3 320 468.7 384 466C448 463.3 512 461.7 576 462.7C640 463.7 704 467.3 768 468.2C832 469 896 467 928 466L960 465L960 420L928 418.2C896 416.3 832 412.7 768 413.7C704 414.7 640 420.3 576 424C512 427.7 448 429.3 384 430.2C320 431 256 431 192 432.8C128 434.7 64 438.3 32 440.2L0 442Z" fill="#a05eda"></path><path d="M0 503L32 503C64 503 128 503 192 504C256 505 320 507 384 508.8C448 510.7 512 512.3 576 512.3C640 512.3 704 510.7 768 508.8C832 507 896 505 928 504L960 503L960 463L928 464C896 465 832 467 768 466.2C704 465.3 640 461.7 576 460.7C512 459.7 448 461.3 384 464C320 466.7 256 470.3 192 472.2C128 474 64 474 32 474L0 474Z" fill="#c291ed"></path><path d="M0 541L32 541C64 541 128 541 192 541C256 541 320 541 384 541C448 541 512 541 576 541C640 541 704 541 768 541C832 541 896 541 928 541L960 541L960 501L928 502C896 503 832 505 768 506.8C704 508.7 640 510.3 576 510.3C512 510.3 448 508.7 384 506.8C320 505 256 503 192 502C128 501 64 501 32 501L0 501Z" fill="#e3c4ff"></path></svg>