<svg id="visual" viewBox="0 0 960 540" width="960" height="540" xmlns="http://www.w3.org/2000/svg" xmlns:xlink="http://www.w3.org/1999/xlink" version="1.1"><path d="M0 98L40 98C80 98 160 98 240 115.2C320 132.3 400 166.7 480 193.7C560 220.7 640 240.3 720 231.3C800 222.3 880 184.7 920 165.8L960 147L960 0L920 0C880 0 800 0 720 0C640 0 560 0 480 0C400 0 320 0 240 0C160 0 80 0 40 0L0 0Z" fill="#750ec2"></path><path d="M0 379L40 356.5C80 334 160 289 240 275.5C320 262 400 280 480 297.2C560 314.3 640 330.7 720 314.5C800 298.3 880 249.7 920 225.3L960 201L960 145L920 163.8C880 182.7 800 220.3 720 229.3C640 238.3 560 218.7 480 191.7C400 164.7 320 130.3 240 113.2C160 96 80 96 40 96L0 96Z" fill="#9e57d2"></path><path d="M0 422L40 392.3C80 362.7 160 303.3 240 298C320 292.7 400 341.3 480 360.2C560 379 640 368 720 355.3C800 342.7 880 328.3 920 321.2L960 314L960 199L920 223.3C880 247.7 800 296.3 720 312.5C640 328.7 560 312.3 480 295.2C400 278 320 260 240 273.5C160 287 80 332 40 354.5L0 377Z" fill="#c18fe2"></path><path d="M0 498L40 471C80 444 160 390 240 391.8C320 393.7 400 451.3 480 482.8C560 514.3 640 519.7 720 497.2C800 474.7 880 424.3 920 399.2L960 374L960 312L920 319.2C880 326.3 800 340.7 720 353.3C640 366 560 377 480 358.2C400 339.3 320 290.7 240 296C160 301.3 80 360.7 40 390.3L0 420Z" fill="#e1c6f1"></path><path d="M0 541L40 541C80 541 160 541 240 541C320 541 400 541 480 541C560 541 640 541 720 541C800 541 880 541 920 541L960 541L960 372L920 397.2C880 422.3 800 472.7 720 495.2C640 517.7 560 512.3 480 480.8C400 449.3 320 391.7 240 389.8C160 388 80 442 40 469L0 496Z" fill="#ffffff"></path></svg>