<svg id="visual" viewBox="0 0 960 540" width="960" height="540" xmlns="http://www.w3.org/2000/svg" xmlns:xlink="http://www.w3.org/1999/xlink" version="1.1"><path d="M0 44L32 42.2C64 40.3 128 36.7 192 32.2C256 27.7 320 22.3 384 19.7C448 17 512 17 576 22.5C640 28 704 39 768 40.8C832 42.7 896 35.3 928 31.7L960 28L960 0L928 0C896 0 832 0 768 0C704 0 640 0 576 0C512 0 448 0 384 0C320 0 256 0 192 0C128 0 64 0 32 0L0 0Z" fill="#e3c4ff"></path><path d="M0 87L32 84.3C64 81.7 128 76.3 192 69.2C256 62 320 53 384 49.5C448 46 512 48 576 55.2C640 62.3 704 74.7 768 76.3C832 78 896 69 928 64.5L960 60L960 26L928 29.7C896 33.3 832 40.7 768 38.8C704 37 640 26 576 20.5C512 15 448 15 384 17.7C320 20.3 256 25.7 192 30.2C128 34.7 64 38.3 32 40.2L0 42Z" fill="#d6b0f8"></path><path d="M0 147L32 146C64 145 128 143 192 134.8C256 126.7 320 112.3 384 107.8C448 103.3 512 108.7 576 115.8C640 123 704 132 768 131.2C832 130.3 896 119.7 928 114.3L960 109L960 58L928 62.5C896 67 832 76 768 74.3C704 72.7 640 60.3 576 53.2C512 46 448 44 384 47.5C320 51 256 60 192 67.2C128 74.3 64 79.7 32 82.3L0 85Z" fill="#c99cf1"></path><path d="M0 168L32 169C64 170 128 172 192 165.8C256 159.7 320 145.3 384 142.7C448 140 512 149 576 156.2C640 163.3 704 168.7 768 166.8C832 165 896 156 928 151.5L960 147L960 107L928 112.3C896 117.7 832 128.3 768 129.2C704 130 640 121 576 113.8C512 106.7 448 101.3 384 105.8C320 110.3 256 124.7 192 132.8C128 141 64 143 32 144L0 145Z" fill="#bb87ea"></path><path d="M0 244L32 253.8C64 263.7 128 283.3 192 278C256 272.7 320 242.3 384 229.8C448 217.3 512 222.7 576 229.8C640 237 704 246 768 247.8C832 249.7 896 244.3 928 241.7L960 239L960 145L928 149.5C896 154 832 163 768 164.8C704 166.7 640 161.3 576 154.2C512 147 448 138 384 140.7C320 143.3 256 157.7 192 163.8C128 170 64 168 32 167L0 166Z" fill="#ae73e2"></path><path d="M0 293L32 304.7C64 316.3 128 339.7 192 334.2C256 328.7 320 294.3 384 279.8C448 265.3 512 270.7 576 277C640 283.3 704 290.7 768 289.8C832 289 896 280 928 275.5L960 271L960 237L928 239.7C896 242.3 832 247.7 768 245.8C704 244 640 235 576 227.8C512 220.7 448 215.3 384 227.8C320 240.3 256 270.7 192 276C128 281.3 64 261.7 32 251.8L0 242Z" fill="#a05eda"></path><path d="M0 336L32 346.8C64 357.7 128 379.3 192 381.2C256 383 320 365 384 353.2C448 341.3 512 335.7 576 336.5C640 337.3 704 344.7 768 347.5C832 350.3 896 348.7 928 347.8L960 347L960 269L928 273.5C896 278 832 287 768 287.8C704 288.7 640 281.3 576 275C512 268.7 448 263.3 384 277.8C320 292.3 256 326.7 192 332.2C128 337.7 64 314.3 32 302.7L0 291Z" fill="#9249d2"></path><path d="M0 395L32 405C64 415 128 435 192 433.2C256 431.3 320 407.7 384 394.2C448 380.7 512 377.3 576 381C640 384.7 704 395.3 768 401.5C832 407.7 896 409.3 928 410.2L960 411L960 345L928 345.8C896 346.7 832 348.3 768 345.5C704 342.7 640 335.3 576 334.5C512 333.7 448 339.3 384 351.2C320 363 256 381 192 379.2C128 377.3 64 355.7 32 344.8L0 334Z" fill="#8431ca"></path><path d="M0 541L32 541C64 541 128 541 192 541C256 541 320 541 384 541C448 541 512 541 576 541C640 541 704 541 768 541C832 541 896 541 928 541L960 541L960 409L928 408.2C896 407.3 832 405.7 768 399.5C704 393.3 640 382.7 576 379C512 375.3 448 378.7 384 392.2C320 405.7 256 429.3 192 431.2C128 433 64 413 32 403L0 393Z" fill="#750ec2"></path></svg>